<?xml version="1.0" encoding="utf-8"?>
<!-- Generator: Adobe Illustrator 24.0.2, SVG Export Plug-In . SVG Version: 6.00 Build 0)  -->
<svg version="1.1" id="Layer_1" xmlns="http://www.w3.org/2000/svg" xmlns:xlink="http://www.w3.org/1999/xlink" x="0px" y="0px"
	 viewBox="0 0 533 269" style="enable-background:new 0 0 533 269;" xml:space="preserve">
<style type="text/css">
	.st0{fill:#FFFFFF;}
	.st1{fill:#693C34;}
	.st2{fill:#4E2A1B;}
	.st3{fill:#4F2B1C;}
	.st4{fill:#4E2B1C;}
	.st5{fill:#533022;}
	.st6{fill:#573527;}
	.st7{fill:#614039;}
	.st8{fill:#F27B27;}
	.st9{fill:#F27C29;}
	.st10{fill:#F4802F;}
	.st11{fill:#F37E2B;}
	.st12{fill:#F37F2E;}
	.st13{fill:#F27D29;}
	.st14{fill:#F48533;}
	.st15{fill:#64443E;}
	.st16{fill:#62433C;}
	.st17{fill:#F8B26A;}
	.st18{fill:#F8B268;}
	.st19{fill:#F7B670;}
	.st20{fill:#FAB66F;}
	.st21{fill:#F8B167;}
	.st22{fill:#FAB872;}
	.st23{fill:#F9B56C;}
	.st24{fill:#F8B369;}
	.st25{fill:#F9B975;}
	.st26{fill:#F8AE60;}
	.st27{fill:#F8B064;}
	.st28{fill:#F8B36B;}
	.st29{fill:#F8B165;}
	.st30{fill:#FAB56F;}
	.st31{fill:#F8AE63;}
	.st32{fill:#F8AF62;}
	.st33{fill:#F9B66F;}
	.st34{fill:#F8AD5F;}
	.st35{fill:#F58C8B;}
	.st36{fill:#F8D1D3;}
	.st37{fill:#F6AC5E;}
	.st38{fill:#FBFBFB;}
	.st39{fill:#FDFEFF;}
	.st40{fill:#FDFDFE;}
	.st41{fill:#FFF4EC;}
	.st42{fill:#FBE6D7;}
	.st43{fill:#E7E0DF;}
	.st44{fill:#E6DDDD;}
	.st45{fill:#86635B;}
	.st46{fill:#F58D8C;}
	.st47{fill:#F59393;}
	.st48{fill:#F5908F;}
	.st49{fill:#F58E8E;}
</style>
<g>
	<path class="st0" d="M265.77,268.93c-87.27,0-174.54-0.02-261.81,0.09c-3.29,0-4.17-0.47-4.16-4.02
		C-0.08,178.08-0.09,91.18-0.18,4.27c0-3.11,0.2-4.26,3.92-4.25c175.04,0.13,350.09,0.12,525.13,0.04c2.97,0,3.9,0.47,3.9,3.75
		c-0.11,87.08-0.12,174.15,0.02,261.23c0.01,3.63-1.01,3.98-4.21,3.97C440.98,268.91,353.37,268.93,265.77,268.93z"/>
	<path class="st1" d="M12.1,156.03c1.35-1.96,3.34-0.86,4.97-0.86c44.97-0.08,89.94-0.11,134.91,0.03c3.88,0.01,5.33-0.89,6.04-4.94
		c2.14-12.29,10.9-20.18,23.07-21.25c2.62-0.23,3.83-0.89,4.2-3.59c0.88-6.43,2.31-12.76,4.23-18.97c0.51-1.65,0.21-3.06-0.55-4.73
		c-9.62-21.12-11.74-43.22-7.05-65.76c2.84-13.64,11.48-17.86,24.65-13.17c13.27,4.73,23.07,14.32,32.44,24.29
		c2.2,2.34,4.29,2.96,7.35,2.92c14.29-0.18,28.59-0.2,42.87,0.03c3.14,0.05,5.18-0.76,7.28-3.06c6.86-7.52,14.28-14.44,23.05-19.76
		c1.42-0.86,2.89-1.64,4.38-2.38c17.06-8.46,28.38-2.74,30.71,16.1c2.61,21.12,1.03,41.82-8.52,61.32
		c-1.47,3.01,0.72,5.45,0.88,8.18c0.21,3.62,2.92,3.35,5.4,4.22c3.38,1.19,6.35,1.15,9.79,0.35c5.05-1.17,7.8,0.78,9.49,5.7
		c0.41,1.18-0.01,2.92,1.78,3.19c7.37,1.09,7.69,7.01,8.19,12.41c0.43,4.62,0.41,9.36-0.18,13.96c-0.53,4.13,0.74,4.96,4.64,4.95
		c35.81-0.14,71.62-0.08,107.43-0.08c8.66,0,17.32-0.03,25.98,0.04c1,0.01,2.39-0.73,2.98,0.88c-2.54,2.24-5.67,1.56-8.59,1.56
		c-41.05,0.05-82.11,0.04-123.16,0.03c-3.66,0-7.32,0-10.78,1.42c-4.56-0.18-4.85-3.37-4.42-6.69c0.63-4.8,0.98-9.6,0.7-14.43
		c-0.23-4.05-0.29-8.12-6.16-8.21c-2.25-0.04-2.92-2.37-3.53-4.34c-1.59-5.11-1.87-5.32-6.44-3.3c-2.36,1.05-4.3,0.89-6.61-0.24
		c-5.43-2.66-8.25-1.39-9.99,4.44c-0.65,2.16-1.73,3.58-3.89,4.04c-3.18,0.68-4.34,2.85-4.37,5.8c-0.06,5.82-0.18,11.62,0.59,17.43
		c0.43,3.27,1.91,4.11,4.89,4.08c9.82-0.1,19.64,0,29.46-0.06c3.21-0.02,6.3,0.34,9.25,1.65c2.42-0.74,4.9-0.84,7.4-0.84
		c42.52,0.01,85.04-0.01,127.57,0.04c2.76,0,5.71-0.58,8.08,1.58c-1.56,1.87-3.67,0.86-5.47,0.86
		c-73.74,0.06-147.48,0.08-221.22-0.01c-3.42,0-5.45,0.81-7.68,3.76c-6.51,8.62-16.14,9.09-25.83,8.04
		c-6.86-0.74-12.87-3.52-16.41-9.92c-1.04-1.88-2.52-1.83-4.2-1.82c-9.16,0.01-18.31,0.09-27.46-0.05c-2.3-0.03-3.58,0.73-4.69,2.71
		c-1.48,2.64-4.46,4.69-6.98,4c-4.36-1.2-6.32,1.46-9.28,3.32c-5.12,3.22-10.83,4.61-16.22,0.36c-1.5-1.18-2.07-0.47-3.27,0.23
		c-7.05,4.13-13.55,1.84-15.41-6.06c-0.99-4.22-2.92-4.57-6.47-4.56c-44.94,0.1-89.89,0.08-134.83,0c-1.62,0-3.62,1.1-4.96-0.86
		c2.55-2.24,5.68-1.56,8.6-1.56c41.78-0.05,83.55-0.03,125.33-0.05c1.92,0,3.87,0.3,6.1-0.37c-2.23-0.68-4.19-0.37-6.1-0.37
		c-41.78-0.02-83.55,0-125.33-0.05C17.78,157.58,14.65,158.27,12.1,156.03z"/>
	<path class="st2" d="M324.51,198.9c0,3.49-0.21,7,0.06,10.46c0.25,3.19-1.01,4.21-3.99,3.81c-0.98-0.13-2.01-0.16-2.99,0
		c-4.03,0.66-5.58-0.69-5.24-5.01c0.4-5.12-2.16-6.71-7.25-5.3c-2.83,0.78-1.61,3.05-1.48,4.5c0.31,3.66-0.76,4.93-4.63,4.75
		c-7.13-0.34-14.29-0.19-21.44-0.07c-4.71,0.08-7.28-2.05-7.43-6.7c-0.16-5.15-0.12-10.3-0.01-15.45c0.09-4.41,2.55-6.76,6.89-6.84
		c6.48-0.12,12.97-0.13,19.45,0c3.7,0.08,6.84,1.69,6.7,5.8c-0.18,5.36,3.37,3.93,6.26,4.14c4.57,0.35,2.83-3.06,3-5.12
		c0.41-4.95,3.52-7.39,7.99-6.04c3.03,0.91,4.07,3.16,4.09,6.09C324.52,191.58,324.51,195.24,324.51,198.9z"/>
	<path class="st2" d="M191.98,198.95c0,3.49-0.23,7,0.07,10.47c0.28,3.24-1.02,4.15-3.96,3.75c-0.98-0.14-2.02-0.16-2.99,0
		c-4.02,0.65-5.61-0.69-5.28-5.02c0.39-5.11-2.14-6.7-7.21-5.31c-2.84,0.78-1.65,3.05-1.52,4.52c0.3,3.56-0.57,4.96-4.54,4.75
		c-7.13-0.38-14.3-0.05-21.45-0.13c-5.38-0.06-7.21-1.81-7.38-7.17c-0.15-4.82,0-9.64-0.03-14.47c-0.04-4.69,2.32-7.2,6.93-7.3
		c6.48-0.14,12.98-0.14,19.46,0c4.3,0.1,6.85,2.34,6.83,6.85c-0.03,5.23,3.91,2.47,6.11,3.02c3.21,0.79,2.95-1.57,2.91-3.61
		c-0.02-0.83-0.06-1.67,0.05-2.49c0.45-3.55,2.62-5.35,6.08-5.28c3.41,0.07,5.75,1.78,5.88,5.43c0.14,3.99,0.03,7.98,0.03,11.97
		C191.97,198.95,191.98,198.95,191.98,198.95z"/>
	<path class="st2" d="M365.13,239.88c-4.99,0-9.99,0.19-14.97-0.04c-7.7-0.35-11.98-4.33-12.3-11.02
		c-0.34-7.03,3.52-11.73,11.37-12.33c10.76-0.83,21.61-1,32.37,0.14c6.97,0.74,10.39,5.08,10.3,11.73
		c-0.08,6.5-3.83,10.75-10.81,11.34c-5.28,0.45-10.64,0.09-15.96,0.09C365.13,239.82,365.13,239.85,365.13,239.88z"/>
	<path class="st2" d="M231.82,239.89c-4.66,0-9.32,0.17-13.97-0.04c-7.78-0.35-12.02-4.22-12.33-10.92
		c-0.34-7.3,3.23-11.8,11.16-12.43c10.76-0.86,21.61-0.98,32.37,0.1c6.93,0.7,10.53,5.16,10.49,11.64
		c-0.05,6.59-4.09,10.75-11.25,11.57c-0.5,0.06-1,0.09-1.49,0.09c-4.99,0.01-9.98,0-14.97,0
		C231.82,239.9,231.82,239.9,231.82,239.89z"/>
	<path class="st2" d="M166.09,239.86c-4.81,0-9.64,0.23-14.44-0.05c-7.94-0.47-12.31-5.35-11.96-12.9c0.32-7,4.81-11.04,12.56-11.1
		c9.3-0.07,18.6-0.08,27.9,0c7.67,0.06,12.16,4.15,12.55,11.2c0.39,7.09-4.04,12.18-11.66,12.75c-4.95,0.37-9.96,0.07-14.94,0.07
		C166.09,239.84,166.09,239.85,166.09,239.86z"/>
	<path class="st2" d="M298.8,215.79c4.98,0.01,9.97-0.11,14.94,0.04c6.45,0.19,10.62,4.15,11.23,10.35
		c0.66,6.73-2.36,11.98-8.79,12.91c-11.66,1.7-23.5,1.59-35.17,0.05c-6.35-0.84-9.64-6.5-8.92-12.91
		c0.7-6.26,4.84-10.09,11.26-10.42c0.33-0.02,0.66-0.02,1-0.02C289.17,215.79,293.99,215.79,298.8,215.79z"/>
	<path class="st3" d="M367.17,198.53c0-3.66,0.05-7.32-0.01-10.98c-0.07-3.54,1.33-5.93,5.08-5.99c3.69-0.06,5.12,2.22,5.5,5.73
		c0.21,1.94-1.71,5.56,1.71,5.5c2.87-0.05,1.13-3.52,1.34-5.41c0.37-3.47,1.71-5.85,5.43-5.83c3.94,0.02,5.49,2.42,5.46,6.2
		c-0.06,7.65-0.1,15.31,0.03,22.96c0.04,2.51-0.57,3.45-3.29,3.51c-7.48,0.18-7.41,0.32-7.63-7.17c-0.04-1.4,1.16-3.93-1.36-4.02
		c-3.09-0.12-1.65,2.7-1.69,4.17c-0.22,7.21-0.14,7.05-7.39,6.89c-2.84-0.06-3.28-1.2-3.2-3.59
		C367.28,206.52,367.17,202.52,367.17,198.53z"/>
	<path class="st2" d="M259.1,199.45c0,3.66-0.25,7.34,0.06,10.97c0.47,5.48-3.48,3.37-5.97,3.7c-2.88,0.38-5.39,0.24-4.74-3.9
		c0.25-1.62,0.04-3.32,0.04-4.98c0-1.22-0.06-2.42-1.77-2.34c-1.71,0.08-1.58,1.36-1.6,2.51c-0.02,1.16-0.17,2.35,0.02,3.49
		c0.67,4.06-0.74,5.31-5.01,5.29c-4.29-0.02-5.75-0.92-5.47-5.45c0.44-7.12,0.17-14.29,0.1-21.44c-0.04-3.67,1.61-5.78,5.27-5.74
		c3.42,0.03,4.82,2.17,5.15,5.5c0.2,2.02-1.49,5.67,1.55,5.74c3.38,0.08,1.49-3.63,1.69-5.59c0.37-3.57,1.87-5.74,5.53-5.66
		c3.67,0.08,5.23,2.34,5.17,5.93C259.05,191.47,259.1,195.46,259.1,199.45z"/>
	<path class="st3" d="M335.86,197.91c0-14.8,0-14.8,14.86-14.79c2.5,0,5-0.07,7.5,0.04c2.87,0.12,4.65,1.41,4.73,4.59
		c0.08,3.36-1.57,4.92-4.76,5.07c-1.66,0.08-3.36,0.23-4.99-0.01c-4.46-0.65-6.09,0.86-5.84,5.59c0.19,3.55,0.75,5.25,4.68,4.76
		c2.62-0.32,5.33-0.12,7.99-0.03c2.97,0.11,4.59,1.7,4.62,4.73c0.04,3.04-1.62,4.82-4.51,4.87c-5.99,0.11-11.98-0.06-17.97-0.17
		c-4.66-0.09-6.4-2.81-6.31-7.16C335.9,202.91,335.86,200.41,335.86,197.91z"/>
	<path class="st4" d="M203.51,197.99c0-14.87,0-14.87,15.1-14.87c2.49,0,4.99-0.1,7.47,0.06c2.94,0.18,4.49,1.83,4.47,4.86
		c-0.02,3.05-1.64,4.59-4.56,4.77c-1.98,0.12-4.02,0.27-5.97,0c-4.28-0.61-5.16,1.21-5.19,5.24c-0.04,4.21,1.25,5.6,5.32,5.12
		c2.46-0.29,4.98-0.13,7.46-0.02c2.97,0.13,4.49,1.71,4.52,4.77c0.03,3.09-1.58,4.79-4.47,4.84c-5.97,0.11-11.94-0.05-17.91-0.18
		c-4.62-0.1-6.42-2.72-6.25-7.11C203.59,202.97,203.51,200.48,203.51,197.99z"/>
	<path class="st5" d="M12.1,156.03c46.1,0,92.19,0.01,138.29,0.01c1.5,0,3-0.01,4.49,0.07c1.15,0.06,1.82,0.7,1.82,1.9
		c0,1.2-0.68,1.84-1.82,1.9c-1.49,0.08-2.99,0.07-4.49,0.07c-46.1,0.01-92.19,0.01-138.29,0.01C12.1,158.67,12.1,157.35,12.1,156.03
		z"/>
	<path class="st6" d="M378.51,158.89c2.59-2.72,5.83-2.93,9.39-2.93c44.86,0.09,89.72,0.06,134.59,0.06c0,1.33,0,2.65,0,3.98
		c-45.93,0-91.86,0.01-137.8-0.04c-2.06,0-4.38,0.83-6.12-1.13L378.51,158.89z"/>
	<path class="st7" d="M42.91,219.68c-0.25,2.27-1.66,4.09-4.52,2.91c-3.68-1.52-7.06-0.95-10.67,0c-4.4,1.16-6.03-0.74-4.47-5.04
		c0.55-1.54,1.36-3.08,2.4-4.32c2.35-2.81,3.99-6.99,8.87-5.85C37.51,208.07,42.8,215.75,42.91,219.68z"/>
	<path class="st7" d="M484.7,218.52c1.37-4.13,3.97-8.09,8.13-10.86c1.95-1.3,3.95-0.58,5.5,0.81c2.88,2.6,5,5.83,6.15,9.52
		c1.02,3.29-1.13,5.8-4.11,4.62c-3.88-1.53-7.4-1.01-11.16,0.05C486.41,223.46,484.1,222.96,484.7,218.52z"/>
	<path class="st8" d="M420.83,107.97c-2-0.02-2.8-1.02-3.36-2.3c-1.85-4.25-3.77-8.48-5.51-12.77c-0.53-1.31-1.21-3.06,0.83-3.78
		c1.58-0.56,2.39,0.62,2.93,1.95c0.84,2.07,1.4,4.01,4.56,2.37c2.64-1.37,3.37-2.65,1.94-5.26c-0.71-1.31-1.3-3.05,0.58-3.84
		c1.86-0.79,2.56,0.8,3.17,2.23c1.75,4.12,3.49,8.24,5.3,12.33c1.16,2.63,0.64,4.39-2.19,5.48
		C426.16,105.5,423.33,106.87,420.83,107.97z"/>
	<path class="st9" d="M493.05,52.42c-2.46,2.26-0.69,4.68-0.97,6.86c-0.19,1.53-0.1,3.26-2,3.5c-2.16,0.27-2.28-1.56-2.27-3.05
		c0.02-3.79-1.15-7.2-3.09-10.38c-0.93-1.52-1.72-3.25,0.14-4.36c1.73-1.04,2.54,0.67,3.37,1.93c0.65,0.99,1.01,2.94,2.82,1.64
		c1.67-1.21,0.11-2.28-0.5-3.35c-0.87-1.52-2.64-3.3-0.28-4.66c2.27-1.31,3.13,1.12,4.11,2.51c3.17,4.5,4.44,9.61,4.43,15.06
		c0,1.33,0.05,2.91-1.74,3.09c-2.05,0.21-2.35-1.31-2.44-2.95C494.51,56.32,494.94,54.22,493.05,52.42z"/>
	<path class="st9" d="M484.16,92.65c0.19,1.58-0.64,2.35-2.01,2.98c-7.53,3.44-11.52,1.15-12.46-7.21
		c-0.12-1.04-0.14-2.03,0.78-2.69c1.22-0.87,2.06-0.18,2.94,0.75c2.53,2.68,3.91,1.78,4.1-1.57c0.08-1.41,0.62-2.2,1.92-2.43
		c1.24-0.22,1.75,0.77,2.16,1.65C482.86,86.85,483.86,89.65,484.16,92.65z"/>
	<path class="st10" d="M467.79,89.91c-0.84,2.04,2.02,5.73-1.71,6.11c-3.78,0.38-1.82-3.76-2.75-5.74
		c-0.07-0.14-0.06-0.32-0.08-0.49c-0.77-8.27-0.76-8.26-8.71-6.44c-1.12,0.26-2.27,0.45-3.41,0.53c-1.08,0.08-1.99-0.42-2.27-1.51
		c-0.36-1.39,0.45-2.34,1.69-2.57c4.21-0.8,8.43-1.59,12.69-2.11c2.14-0.26,3.31,1.14,3.54,3.29
		C467.08,83.93,467.44,86.89,467.79,89.91z"/>
	<path class="st11" d="M477.14,47.61c2.69-0.47,4.26,0.57,4.59,3.27c0.52,4.29,0.97,8.59,1.43,12.89c0.14,1.34-0.36,2.34-1.83,2.42
		c-1.4,0.08-2.15-0.85-2.33-2.11c-0.39-2.8-0.88-5.61-0.94-8.42c-0.08-3.61-1.67-4.04-4.81-3.26c-2.43,0.6-6.31,3.54-7.24-0.28
		c-1.02-4.18,4.06-2.39,6.28-3.53C473.7,47.87,475.51,47.91,477.14,47.61z"/>
	<path class="st12" d="M434.77,79.77c0.51,0.34,1.4,0.64,1.76,1.24c1.38,2.3,3.05,3.26,5.73,2.12c1.09-0.46,2.35-0.29,2.85,1.13
		c0.49,1.38-0.26,2.42-1.45,2.66c-3.71,0.75-3.01,3.22-2.45,5.69c0.44,1.91,0.6,3.91-1.9,4.23c-2.54,0.33-2.16-1.98-2.35-3.48
		c-0.46-3.5-1.74-6.67-3.56-9.66C432.42,82.08,432.13,80.6,434.77,79.77z"/>
	<path class="st13" d="M481.9,73.64c-0.19,1.31-0.71,1.99-1.54,2.23c-2.03,0.6-3.17,1.64-2.65,3.96c0.29,1.33-0.36,2.28-1.73,2.55
		c-1.47,0.28-2.03-0.64-2.38-1.9c-0.66-2.42-1.6-4.7-3.28-6.64c-0.93-1.07-1.38-2.42-0.16-3.56c1.38-1.3,2.62-0.25,3.33,0.82
		c1.45,2.19,3.11,1.89,5.17,1.1C480.22,71.6,481.57,72.07,481.9,73.64z"/>
	<path class="st14" d="M438.34,108.26c-2.43,0.16-3.63-0.61-3.99-2.29c-0.5-2.34-2.74-4.63-1.2-7c1.18-1.81,3.04-1.26,3.64,0.87
		c0.76,2.72,1.94,4.06,4.91,2.76c1.62-0.71,3.48-0.87,3.97,1.37c0.44,2.01-1.45,2.29-2.82,2.77
		C441.15,107.36,439.42,107.9,438.34,108.26z"/>
	<path class="st15" d="M496.64,199.13c0.4-3.09,0.8-6.59,4.4-7.53c2.26-0.6,2.84,1.79,2.76,3.7c-0.14,3.4-0.61,7.06-4.52,7.91
		C496.96,203.71,496.93,201.01,496.64,199.13z"/>
	<path class="st15" d="M42.02,195.85c-0.42,2.88-0.63,6.67-4.67,7.37c-2.23,0.38-2.52-2.29-2.43-4.1c0.16-3.24,0.81-6.7,4.42-7.54
		C41.58,191.05,41.95,193.52,42.02,195.85z"/>
	<path class="st16" d="M492.89,198.33c-0.33,1.79,0.47,4.5-2.18,4.87c-2.77,0.39-3.48-2.31-3.86-4.31c-0.45-2.35-1.13-4.95,0.81-7.1
		c0.75-0.83,1.75-1.05,2.64-0.28C492.33,193.29,492.82,195.7,492.89,198.33z"/>
	<path class="st16" d="M31.1,198.14c-0.39,2.03,0.38,5.42-2.58,5.04c-3.55-0.46-3.78-4.1-3.79-7.16c-0.01-2.12-0.18-5.22,2.75-4.72
		C30.74,191.85,30.77,195.37,31.1,198.14z"/>
	<path class="st16" d="M485.73,207.13c-0.06,2.1-0.11,4.23-2.41,3.82c-3.52-0.62-4.28-3.7-4.59-6.74c-0.19-1.82,0.52-3.66,2.56-3.4
		C485.09,201.29,485.24,204.62,485.73,207.13z"/>
	<path class="st16" d="M23.91,207c-0.07,2.03,0.03,4.23-2.26,3.94c-3.61-0.45-4.35-3.57-4.74-6.59c-0.23-1.79,0.4-3.73,2.41-3.57
		C23.18,201.11,23.37,204.47,23.91,207z"/>
	<path class="st16" d="M504.52,208.31c0.44-2.88,1.2-6,4.78-6.47c2.05-0.27,2.56,1.88,2.35,3.62c-0.35,2.88-1.26,5.75-4.5,6.39
		C504.92,212.28,504.64,210.24,504.52,208.31z"/>
	<path class="st16" d="M42.71,208.38c0.4-2.87,1.14-5.97,4.69-6.54c2.1-0.33,2.61,1.79,2.44,3.52c-0.3,2.9-1.23,5.73-4.42,6.47
		C43.2,212.33,42.82,210.36,42.71,208.38z"/>
	<path class="st17" d="M502,33.02c2.17-1.38,3.27-0.05,5.05,1.17C504.36,35.74,503.31,33.91,502,33.02z"/>
	<path class="st18" d="M381.21,101.84c-1.75,1.37-2.92,2.35-4.66,2.01c-0.26-0.05-0.61-1.06-0.55-1.1
		C377.27,101.85,378.49,100.68,381.21,101.84z"/>
	<path class="st19" d="M466.86,116.92c-0.86,2.64-2.73,2.13-4.79,1.97C463.2,116.17,465.25,117.23,466.86,116.92z"/>
	<path class="st20" d="M393.37,95.53c1.81-1.66,2.97-2.97,5.28-1.9C397.46,95.34,396.28,96.46,393.37,95.53z"/>
	<path class="st21" d="M509.69,86.1c0.92-1.34,1.84-2.69,3.25-4.75c0.78,3.32-0.69,4.43-1.9,5.68
		C510.59,86.72,510.14,86.41,509.69,86.1z"/>
	<path class="st22" d="M480.39,111.61c1.69-1.74,2.82-3.01,5.16-2.06C484.48,111.33,483.29,112.33,480.39,111.61z"/>
	<path class="st23" d="M463.34,29.16c1.16-1.22,2.31-2.64,4.37-1.41C466.62,29.71,465.13,29.9,463.34,29.16z"/>
	<path class="st21" d="M482.33,27.75c2.33-0.76,3.82-1.08,5.59,0.42C485.97,29.43,484.54,29.38,482.33,27.75z"/>
	<path class="st24" d="M518.31,49.64c-1.94-1.04-1.89-2.6-2.43-3.91C518.38,46.3,518.38,46.3,518.31,49.64z"/>
	<path class="st25" d="M509.51,37.03c2.74,0.5,3.77,1.54,4.13,3.77C511.38,40.67,510.56,39.34,509.51,37.03z"/>
	<path class="st26" d="M472.28,27.24c2.19-1.47,3.65-1.33,5.9-0.23C475.98,28.42,474.52,28.28,472.28,27.24z"/>
	<path class="st27" d="M449.75,35.16c-0.39,2.45-1.78,3.12-3.32,3.97C446.77,36.62,446.77,36.62,449.75,35.16z"/>
	<path class="st18" d="M470.98,115.31c2.26-1.23,3.54-2.23,6.02-1.55C475.32,115.34,474.15,116.47,470.98,115.31z"/>
	<path class="st23" d="M399.16,116.08c-2.36,1.48-3.73,0.88-5.5-0.77C395.89,114.34,397.26,114.91,399.16,116.08z"/>
	<path class="st28" d="M402.83,118.39c2.82-1.88,4.21-1.38,5.7,0.12C406.8,120.25,405.38,118.79,402.83,118.39z"/>
	<path class="st21" d="M418.35,120.66c-1.85,0.37-3.59,1.13-5.15-1.14C415.26,118.95,416.99,118.28,418.35,120.66z"/>
	<path class="st28" d="M384.97,99.68c1.15-1.74,2.51-2.12,3.95-2.22c0.16-0.01,0.66,0.95,0.53,1.12
		C388.38,100.03,386.97,100.52,384.97,99.68z"/>
	<path class="st29" d="M497.03,100.7c0.91-1.37,1.57-2.95,3.52-2.93c0.19,0,0.63,0.96,0.5,1.13
		C500.1,100.18,499.24,101.85,497.03,100.7z"/>
	<path class="st24" d="M507.27,90.03c0.75,2.51-0.51,3.54-1.84,4.47c-0.2,0.14-1.15-0.28-1.15-0.47
		C504.18,91.91,506.05,91.5,507.27,90.03z"/>
	<path class="st18" d="M366.52,105.48c1.46,0.08,2.55-2.12,4-0.68c0.28,0.28,0.2,1.48-0.12,1.72
		C368.84,107.7,367.72,106.23,366.52,105.48z"/>
	<path class="st30" d="M493.98,104.51c-1.66,1.61-2.6,3.17-4.83,2.21C489.99,104.89,491.1,103.81,493.98,104.51z"/>
	<path class="st27" d="M442.42,121.27c2.09-1.61,3.54-1.43,5.79-0.33C446.02,122.34,444.58,122.24,442.42,121.27z"/>
	<path class="st27" d="M427.44,120.85c-1.35,1.65-2.84,1.12-4.74,0.73C424.23,119.31,425.89,120.22,427.44,120.85z"/>
	<path class="st31" d="M452.24,120.33c2.19-1.7,3.65-1.5,5.43-0.59C456.18,121.61,454.62,121.08,452.24,120.33z"/>
	<path class="st32" d="M443.03,40.85c-1.01,2.67-1.91,3.86-4.21,4.19C439.12,42.68,440.31,41.78,443.03,40.85z"/>
	<path class="st33" d="M424.13,64.45c0.87,3.07-0.13,4.15-1.91,5.06C421.13,67.3,422.78,66.41,424.13,64.45z"/>
	<path class="st18" d="M520.14,63.56c0.28,2.59-0.28,3.98-1.21,5.45C517.99,66.66,517.99,66.66,520.14,63.56z"/>
	<path class="st18" d="M426.73,61.22c0.5-2.22,0.73-3.82,2.65-4.46c0.18-0.06,0.74,0.35,0.72,0.49
		C429.88,58.99,429.1,60.31,426.73,61.22z"/>
	<path class="st26" d="M519.45,54.42c1.7,1.36,1.16,2.85,0.78,4.82C517.96,57.63,518.92,55.96,519.45,54.42z"/>
	<path class="st18" d="M492.66,29.67c1.81-0.82,3.27-1.02,4.59,1.03C495.44,31.24,493.94,31.64,492.66,29.67z"/>
	<path class="st34" d="M458.35,30.77c-1.03,1.65-2.2,2.7-4.28,1.97C455.1,30.78,456.69,30.57,458.35,30.77z"/>
	<path class="st26" d="M419.34,73.21c0.73,2.59-0.59,3.54-2.17,4.59C416.13,75.46,417.7,74.51,419.34,73.21z"/>
	<path class="st21" d="M375.99,108.84c1.84-0.61,3.13,0.01,4.32,1.6C378.06,111.62,377.08,110,375.99,108.84z"/>
	<path class="st34" d="M432.77,121.63c1.89-0.78,3.25-0.87,5.09,0.21C435.96,123.24,434.6,123.1,432.77,121.63z"/>
	<path class="st21" d="M402.19,90.71c0.89-1.8,1.98-2.97,4.28-2.25C405.51,90.22,404.48,91.47,402.19,90.71z"/>
	<path class="st28" d="M413.64,81.12c0.22,2.9-1.12,3.61-3.21,4.08C410.43,83.02,411.87,82.36,413.64,81.12z"/>
	<path class="st18" d="M435.35,48.25c0.7,2.87-0.83,3.6-2.24,4.6C432.05,50.48,433.77,49.69,435.35,48.25z"/>
	<path class="st27" d="M389.63,113.69c-2.25,0.55-3.78,0.59-4.87-1.74C386.65,111.75,388.14,111.74,389.63,113.69z"/>
	<path class="st26" d="M517.04,72.82c1.18,2.91-0.42,3.87-1.55,5.91C514.52,75.93,515.88,74.81,517.04,72.82z"/>
	<path class="st34" d="M193.59,129.78c-4.31,0.01-4.77-1.97-4-5.93c3.5-18.1,8.48-35.53,20.44-50.13
		c9.87-12.04,22.53-18.88,38.19-19.63c3.08-0.15,6.15-1.77,9.29-0.3c-1.36,1.96-0.97,4.01-0.48,6.16
		c1.19,5.18,1.75,10.41,0.49,15.68c-2.45,2.86-6.07,3.94-9.08,5.95c-2.13,1.42-3.37,0.07-4.25-1.77c-1.24-2.59-3.07-4.46-6.13-4.21
		c-3.51,0.29-5.95,2.16-6.56,5.75c-0.51,2.98,2.39,6.31,5.83,7.02c5.78,1.2,5.75,1.19,3.61,6.74c-1.14,2.97-2.73,5.68-4.5,8.31
		c-2.63,3.48-6.13,5.19-10.39,6.27c-12.01,3.04-22.79,8.34-30.54,18.53C195,128.88,194.32,129.36,193.59,129.78z"/>
	<path class="st34" d="M278.07,53.79c20.98-1.03,37.95,6.43,50.14,23.84c7.45,10.64,12.07,22.52,15.07,35.09
		c0.37,1.55,0.79,2.93-0.95,3.88c-2.93,1.61-3.57,4.65-4.61,7.43c-1.94,0.4-3.04-0.96-4.26-2.04c-6.57-5.84-14.17-9.9-22.68-11.74
		c-5.37-1.16-9.49-3.56-12.68-7.87c-1.05-1.69-2.22-3.3-3.01-5.14c-2.6-6.01-2.33-6.78,3.81-9.15c3.21-1.24,4.73-3.38,4.53-6.86
		c-0.18-3.2-2.18-4.88-4.9-5.49c-3.15-0.7-5.33,1.01-6.85,3.77c-2.41,4.4-2.49,4.41-6.6,1.2c-1.74-1.36-3.67-2.22-5.71-2.95
		c-1.47-0.52-3.44-0.43-3.83-2.59C277.19,68.15,278.1,61.03,278.07,53.79z"/>
	<path class="st0" d="M298.67,101.77c3.31,3.73,7.11,6.14,12.28,7.19c10.4,2.13,19.17,7.69,26.77,15.07
		c-6.52,2.15-8.5,6.89-8.01,13.36c0.32,4.3-0.3,8.69,0.17,12.96c0.42,3.85-1.11,4.35-4.39,4.29c-9.49-0.18-18.99-0.01-28.48-0.11
		c-1.6-0.02-4.5,1.02-4.44-1.54c0.06-3.2-2.77-7.16,0.92-9.64c7.37-4.94,10.97-11.99,12.75-20.76c-9.9,4.85-17.76,1.11-25.02-5.33
		c-2.53-2.24-5.32-4.03-8.74-4.51c-2.26-0.31-3.68-1.35-3.89-3.73c-0.92-2.88,1.51-3.38,3.17-4.11c5.76-2.54,8.64-7.46,11.03-12.83
		c0.99-2.22,0.77-4.51,0.13-6.8c-0.22-0.77-0.56-1.69,0.21-2.3c0.92-0.72,1.92-0.3,2.74,0.27c2.78,1.93,4.65,4.6,6.24,7.56
		C294.11,94.57,295.13,98.93,298.67,101.77z"/>
	<path class="st0" d="M193.59,129.78c4.97-9.84,14.15-14.47,23.54-18.68c3.43-1.54,7.21-2.51,10.94-3.06
		c3.55-0.52,5.13-3.43,7.71-5.06c2.76-3.12,5.17-6.43,6.54-10.44c0.64-1.88,1.89-3.49,3.13-5.05c1.13-1.42,2.34-3.15,4.38-2.79
		c2.37,0.41,1.93,2.73,2.3,4.43c1.56,7.16,4.99,12.9,12.02,15.96c1.31,0.57,2.91,1.03,2.83,2.98c-0.37,2.71-1.49,4.49-4.59,4.84
		c-3.99,0.45-6.75,3.26-9.77,5.63c-7.3,5.72-15.06,9.24-24.29,3.09c1.29,9.49,4.93,17.11,13.05,21.98c4.34,2.6,1.08,6.3,1.35,9.4
		c0.24,2.69-2.8,1.5-4.34,1.53c-7.65,0.14-15.3,0.05-22.95,0.07c-1.97,0.01-3.37-0.06-3.55-2.79
		C211.15,140.1,204.75,132.92,193.59,129.78z"/>
	<path class="st1" d="M266.98,108.06c-3.83-2.41-8.37-3.69-11.18-7.72c-3.19-4.57-5.96-9.19-5.13-15.75c-4.47,1.82-5.77,5.63-7.42,9
		c-1.82,3.7-3.31,7.58-7.47,9.38c1.87-4.37,4.85-8.26,5.63-13.45c-2.41,0.01-5,0.74-7.33-0.79c-2.22-1.47-3.8-3.44-3.96-6.01
		c-0.26-4.12,1.86-6.96,5.79-8.23c4.32-1.4,7.68,0.97,10.58,7.41c3.16-2.47,6.39-4.78,10.24-5.99c6.35-3.74,12.83-3.39,19.37-0.57
		c4.78,1.39,9.4,3.1,12.86,7.1c2.21-6.26,5.44-9.07,9.59-8.17c3.98,0.87,6.45,3.27,6.47,7.64c0.02,5.11-2.34,6.98-10.71,8.45
		c0.26,4.25,3.06,7.54,4.33,11.4c-3.72-0.7-4.5-4.05-5.83-6.75c-2.25-4.59-4.36-9.21-9.37-12.19c3.38,7.67-2.47,19.48-11.05,23.24
		c-1.48,0.65-3.9,0.25-3.84,2.96C268.05,108.7,267.51,108.38,266.98,108.06z"/>
	<path class="st0" d="M161.45,157.14c0.18-8.96,2.81-16.92,11.17-21.37c8.68-4.62,17.73-4.05,26.26,0.63
		c7.09,3.88,10.79,13.87,8.61,21.7c-1.59,5.73-5.17,6.68-9.51,2.47c-0.74-0.72-1.4-1.56-2.5-1.23c-1.28,0.39-1.4,1.52-1.61,2.75
		c-0.94,5.53-7.19,8.97-12.37,7.02c-2.46-0.93-2.96-2.92-3.16-5.16c-0.12-1.28-0.69-2.38-1.97-2.54c-1.04-0.13-1.9,0.73-2.19,1.74
		c-1.12,3.95-3.24,6.89-7.75,5.83c-4.52-1.06-4.31-5.34-4.94-8.86C161.3,159.17,161.45,158.14,161.45,157.14z"/>
	<path class="st35" d="M267.83,158.06c0.47-6.09,1.12-12.17,1.33-18.27c0.14-4.13,2.59-5.2,5.95-5.88c3.63-0.73,7.2-1.03,9.24,2.7
		c3.92,7.16,5.03,14.84,2.17,22.58c-2.52,6.82-8.65,8.77-15.15,9.59c-2.45,0.31-5.01,0.29-7.47-0.02
		c-6.51-0.83-12.49-2.9-15.12-9.65c-3.18-8.18-1.73-16.12,2.89-23.27c2.57-3.97,6.78-2.31,10.52-1.47c3.38,0.76,3.62,3.13,3.72,6
		c0.2,5.95,0.74,11.89,1.13,17.84C267.31,158.16,267.57,158.11,267.83,158.06z"/>
	<path class="st0" d="M378.58,158.83c-13.98,0.09-27.97,0.2-41.95,0.23c-0.7,0-1.97,0.7-2.1-0.99c-0.64-8.26-1.11-16.53-0.52-24.81
		c0.19-2.7,1.57-4.42,4.52-4.09c2.41,0.27,3.91-0.1,3.55-3.09c-0.38-3.13,0.9-5.77,3.94-6.71c2.89-0.89,6.03-1.99,8.61,1.32
		c1.44,1.85,3.13,1.33,5.07-0.25c4.14-3.38,7.47-1.89,8.22,3.46c0.44,3.12,0.28,6.15,5.2,4.36c2.3-0.84,3.15,1.88,3.66,3.83
		c1.83,6.91,0.85,13.89,0.34,20.85c-0.16,2.2-0.55,4.32,1.4,5.97C378.51,158.89,378.58,158.83,378.58,158.83z"/>
	<path class="st36" d="M338.86,87.41c-5.92-11.64-12.72-20.72-22.32-27.46c-0.81-0.57-1.62-1.16-2.45-1.71
		c-7.16-4.71-7.14-4.69-0.78-11.11c4.23-4.27,8.71-8.24,14.22-10.75c7.6-3.47,12.99-1.29,14.86,6.69
		C345.79,57.63,343.81,71.93,338.86,87.41z"/>
	<path class="st36" d="M196.37,86.24c-4.21-13.88-6.26-27.22-3.58-40.89c2.08-10.64,7.82-13.2,17.29-7.99
		c6.64,3.65,11.83,9.04,16.87,14.57c1.17,1.28,1.83,2.19-0.37,3.29c-12.98,6.45-22,16.8-28.7,29.4
		C197.67,85.01,197.27,85.29,196.37,86.24z"/>
	<path class="st37" d="M191.87,98.39c-3.8-7.9-5.28-15.45-6.49-23.11c-1.85-11.73-2.36-23.48-0.4-35.23
		c2.34-14.05,9.65-18.07,22.72-12.39c10.59,4.6,18.86,12.35,26.68,20.58c0.8,0.84,3.23,1.81,1.43,3.38
		c-1.51,1.31-3.35,0.6-4.72-1.12c-3.98-4.94-8.47-9.38-13.55-13.19c-3.6-2.7-7.35-5.26-11.86-6.14c-8.1-1.57-13.13,1.36-15.84,9.23
		c-3.23,9.38-2.52,19.04-1.52,28.64c0.74,7.11,2.25,14.12,5.05,20.75C194.63,92.79,193.22,95.05,191.87,98.39z"/>
	<path class="st37" d="M343.72,97.96c-2.44-3.39-2.18-6.16-1.02-9.36c5.24-14.49,7.01-29.41,4.1-44.61
		c-2.42-12.65-11.15-16.65-22.6-10.56c-7.29,3.88-13.18,9.51-18.53,15.75c-1.14,1.33-1.92,3.31-4.2,3c-0.78-0.1-1.67-0.34-2.23-0.83
		c-0.61-0.54-0.01-1.22,0.44-1.69c9.63-9.94,19.25-19.97,33.26-23.68c8.68-2.3,13.14,0.28,15.93,8.91
		c4.11,12.69,3.11,25.63,1.4,38.52C349.2,81.58,347.79,89.78,343.72,97.96z"/>
	<path class="st0" d="M276.11,75.33c-6.5-1.12-12.95-0.97-19.37,0.57c-0.11-6.63,0.33-13.31-2.02-19.7
		c-1.23-3.35,1.89-1.59,2.79-2.41c6.85,0.71,13.7,0.54,20.55,0c0.89,0.58,3.09-0.24,2.29,2.14c-1.9,5.69-2.54,11.54-2.02,17.5
		C278.49,75.19,277.23,75.15,276.11,75.33z"/>
	<path class="st2" d="M292.11,159.13c13.11,0,26.22,0,39.33,0c0,0.16,0,0.32,0,0.48c-13.18,0-26.36,0-39.54,0
		C291.97,159.45,292.04,159.29,292.11,159.13z"/>
	<path class="st2" d="M213.1,159.26c10.2,0,20.41,0,30.61,0c0,0.16,0,0.32,0,0.48c-10.25,0-20.5,0-30.75,0
		C213,159.58,213.05,159.42,213.1,159.26z"/>
	<path class="st0" d="M281.66,197.82c-0.67-3.96-0.09-6.16,4.85-6.03c4.41,0.12,6.14,1.03,5.83,5.73c-0.24,3.64-0.01,6.16-5.1,5.75
		C283.17,202.95,280.29,202.79,281.66,197.82z"/>
	<path class="st38" d="M159.62,197.59c1.25,4.81-0.87,5.58-5.12,5.7c-4.82,0.14-5.62-1.6-5.67-5.93c-0.06-4.38,1.08-5.6,5.52-5.57
		C159.04,191.83,161,193.04,159.62,197.59z"/>
	<path class="st39" d="M365.03,231.09c-3.65,0-7.31-0.01-10.96,0c-2.05,0.01-3.72-0.53-3.66-2.98c0.05-2.35,1.72-3.07,3.73-3.08
		c7.14-0.04,14.28-0.04,21.42-0.01c2.21,0.01,4.09,0.78,3.94,3.38c-0.14,2.37-2.02,2.71-4,2.7
		C372.01,231.07,368.52,231.09,365.03,231.09z"/>
	<path class="st39" d="M232.55,231.08c-3.65,0-7.31-0.01-10.96,0.01c-2.05,0.01-3.73-0.53-3.69-2.96c0.03-2.35,1.74-3.08,3.72-3.09
		c7.31-0.05,14.61-0.06,21.92,0.01c2.04,0.02,3.59,0.98,3.45,3.33c-0.13,2.11-1.61,2.7-3.47,2.7
		C239.86,231.08,236.2,231.07,232.55,231.08z"/>
	<path class="st40" d="M165.91,231.08c-3.32,0-6.63-0.02-9.95,0.01c-2.34,0.02-3.92-0.88-3.94-3.39c-0.02-2.14,1.32-3.55,3.36-3.59
		c7.12-0.14,14.26-0.16,21.38-0.02c2.28,0.05,3.62,1.57,3.4,4c-0.21,2.26-1.7,3.01-3.8,2.99
		C172.87,231.05,169.39,231.08,165.91,231.08z"/>
	<path class="st40" d="M298.03,231.07c-3.32,0-6.63,0-9.95-0.01c-2.16,0-3.47-0.99-3.54-3.24c-0.06-2.18,1.16-3.65,3.21-3.69
		c7.29-0.14,14.59-0.17,21.88,0.03c1.97,0.05,3.25,1.62,3.06,3.82c-0.19,2.22-1.58,3.11-3.71,3.1
		C305.32,231.06,301.67,231.08,298.03,231.07z"/>
	<path class="st41" d="M426.87,99.38c-0.69,2.55-2.98,3.16-4.96,3.43c-2.18,0.29-2.9-2.33-2.56-3.44c0.62-2.07,3.06-2.89,5.05-3.2
		C426.35,95.87,426.12,98.18,426.87,99.38z"/>
	<path class="st42" d="M475.66,92.39c1.02-1.62,2.12-1.94,4.32-1.17C478.45,92.32,477.56,93.22,475.66,92.39z"/>
	<path class="st43" d="M299.78,76.4c1.24,0.31,2.13,0.94,1.97,2.32c-0.15,1.38-1.16,1.96-2.39,1.81c-1.02-0.12-1.75-0.88-1.71-2.02
		C297.7,77.17,298.51,76.51,299.78,76.4z"/>
	<path class="st44" d="M242.24,78.3c0.03,1.37-0.69,2.24-1.99,2.26c-1.26,0.02-2.19-0.82-2.19-2.12c0-1.04,0.76-1.84,1.81-1.99
		C241.22,76.25,241.98,77.01,242.24,78.3z"/>
	<path class="st45" d="M271.69,78.87c-2.56,0-5.12,0-7.68,0c-0.01-0.15-0.02-0.31-0.03-0.46c2.52,0,5.03,0,7.55,0
		C271.58,78.56,271.63,78.72,271.69,78.87z"/>
	<path class="st46" d="M355.3,152.96c-1,0-2,0.07-2.99-0.01c-2.77-0.25-6.12,0.06-7.32-3.06c-1.22-3.14,0.03-6.21,2.21-8.76
		c2.6-3.04,5.72-5.1,9.94-4.36c4.7,0.82,7.69,3.86,9.29,8.14c1.65,4.42,0,7.08-4.67,7.83c-2.12,0.34-4.3,0.24-6.46,0.35
		C355.3,153.05,355.3,153,355.3,152.96z"/>
	<path class="st47" d="M370.85,131.29c1.92,0.42,3.66,1.25,3.68,3.42c0.02,2.27-1.42,3.87-3.7,3.86c-2.08-0.01-3.22-1.5-3.28-3.64
		C367.49,132.67,368.81,131.65,370.85,131.29z"/>
	<path class="st47" d="M340.34,132.55c2,0.28,3.48,1.11,3.6,3.38c0.13,2.49-1.28,3.86-3.55,3.84c-2.02-0.01-3.46-1.43-3.43-3.54
		C336.99,134.21,338.26,132.91,340.34,132.55z"/>
	<path class="st48" d="M345.68,127.81c-0.09-2.71,1.11-4,3.18-4.17c2.06-0.16,3.59,0.96,3.79,3.09c0.22,2.36-1.2,3.92-3.45,4.02
		C347.18,130.85,345.96,129.4,345.68,127.81z"/>
	<path class="st49" d="M362.09,131.14c-2.09-0.17-3.39-1.27-3.31-3.44c0.07-2.07,1.34-3.51,3.39-3.52c2.29-0.01,3.64,1.46,3.57,3.81
		C365.68,130.21,364.22,131.09,362.09,131.14z"/>
</g>
</svg>
